#N canvas 150 220 490 508 12;
#X obj 23 50 netreceive -u -b;
#X obj 23 74 oscparse;
#X msg 23 11 listen 0;
#X msg 113 11 listen 8000;
#X obj 23 98 list trim;
#X obj 47 149 route accxyz;
#X obj 47 190 unpack 0 0 0, f 24;
#X floatatom 47 214 5 0 0 0 - - - 0;
#X floatatom 130 214 5 0 0 0 - - - 0;
#X floatatom 212 215 5 0 0 0 - - - 0;
#X text 88 215 x;
#X text 169 215 y;
#X text 252 215 z;
#X obj 47 237 * 44;
#X obj 47 261 + 60;
#X floatatom 47 285 5 0 0 0 - - - 0;
#X obj 47 308 mtof;
#X floatatom 47 332 5 0 0 0 - - - 0;
#X obj 44 479 dac~;
#X floatatom 130 286 5 0 0 0 - - - 0;
#X obj 80 437 *~;
#X obj 130 238 * 0.5;
#X obj 130 262 + 0.5;
#X obj 213 240 * 44;
#X obj 213 264 + 60;
#X floatatom 213 288 5 0 0 0 - - - 0;
#X obj 213 311 mtof;
#X floatatom 213 335 5 0 0 0 - - - 0;
#X obj 213 358 osc~;
#X obj 67 393 *~;
#X obj 47 355 phasor~;
#X connect 0 0 1 0;
#X connect 1 0 4 0;
#X connect 2 0 0 0;
#X connect 3 0 0 0;
#X connect 4 0 5 0;
#X connect 5 0 6 0;
#X connect 6 0 7 0;
#X connect 6 1 8 0;
#X connect 6 2 9 0;
#X connect 7 0 13 0;
#X connect 8 0 21 0;
#X connect 9 0 23 0;
#X connect 13 0 14 0;
#X connect 14 0 15 0;
#X connect 15 0 16 0;
#X connect 16 0 17 0;
#X connect 17 0 30 0;
#X connect 19 0 20 1;
#X connect 20 0 18 0;
#X connect 20 0 18 1;
#X connect 21 0 22 0;
#X connect 22 0 19 0;
#X connect 23 0 24 0;
#X connect 24 0 25 0;
#X connect 25 0 26 0;
#X connect 26 0 27 0;
#X connect 27 0 28 0;
#X connect 28 0 29 1;
#X connect 29 0 20 0;
#X connect 30 0 29 0;
